<svg width="24" height="24" viewBox="0 0 24 24" fill="none" xmlns="http://www.w3.org/2000/svg">
<circle cx="12" cy="12" r="12" fill="#FFDE02"/>
<path d="M8.75852 16V7.27273H12.2528C12.8949 7.27273 13.4304 7.3679 13.8594 7.55824C14.2884 7.74858 14.6108 8.01278 14.8267 8.35085C15.0426 8.68608 15.1506 9.07244 15.1506 9.50994C15.1506 9.85085 15.0824 10.1506 14.946 10.4091C14.8097 10.6648 14.6222 10.875 14.3835 11.0398C14.1477 11.2017 13.8778 11.3168 13.5739 11.3849V11.4702C13.9063 11.4844 14.2173 11.5781 14.5071 11.7514C14.7997 11.9247 15.0369 12.1676 15.2188 12.4801C15.4006 12.7898 15.4915 13.1591 15.4915 13.5881C15.4915 14.0511 15.3764 14.4645 15.1463 14.8281C14.919 15.1889 14.5824 15.4744 14.1364 15.6847C13.6903 15.8949 13.1406 16 12.4872 16H8.75852ZM10.6037 14.4915H12.108C12.6222 14.4915 12.9972 14.3935 13.233 14.1974C13.4688 13.9986 13.5866 13.7344 13.5866 13.4048C13.5866 13.1634 13.5284 12.9503 13.4119 12.7656C13.2955 12.581 13.1293 12.4361 12.9134 12.331C12.7003 12.2259 12.446 12.1733 12.1506 12.1733H10.6037V14.4915ZM10.6037 10.9247H11.9716C12.2244 10.9247 12.4489 10.8807 12.6449 10.7926C12.8438 10.7017 13 10.5739 13.1136 10.4091C13.2301 10.2443 13.2884 10.0469 13.2884 9.81676C13.2884 9.50142 13.1761 9.24716 12.9517 9.05398C12.7301 8.8608 12.4148 8.7642 12.0057 8.7642H10.6037V10.9247ZM17.7191 16.1108C17.4379 16.1108 17.1964 16.0114 16.9947 15.8125C16.7958 15.6108 16.6964 15.3693 16.6964 15.0881C16.6964 14.8097 16.7958 14.571 16.9947 14.3722C17.1964 14.1733 17.4379 14.0739 17.7191 14.0739C17.9918 14.0739 18.2305 14.1733 18.435 14.3722C18.6396 14.571 18.7418 14.8097 18.7418 15.0881C18.7418 15.2756 18.6935 15.4474 18.5969 15.6037C18.5032 15.7571 18.3796 15.8807 18.2262 15.9744C18.0728 16.0653 17.9038 16.1108 17.7191 16.1108Z" fill="#312C08"/>
</svg>
